<?xml version="1.0" encoding="UTF-8" standalone="no"?>
<!DOCTYPE svg PUBLIC "-//W3C//DTD SVG 1.1//EN"
 "http://www.w3.org/Graphics/SVG/1.1/DTD/svg11.dtd">
<!-- Generated by graphviz version 2.41.20190111.1241 (20190111.1241)
 -->
<!-- Title: G Pages: 1 -->
<svg width="1352pt" height="355pt"
 viewBox="0.00 0.00 1352.00 355.00" xmlns="http://www.w3.org/2000/svg" xmlns:xlink="http://www.w3.org/1999/xlink">
<g id="graph0" class="graph" transform="scale(1 1) rotate(0) translate(4 351)">
<title>G</title>
<polygon fill="white" stroke="transparent" points="-4,4 -4,-351 1348,-351 1348,4 -4,4"/>
<text text-anchor="middle" x="672" y="-7.8" font-family="Times New Roman,serif" font-size="14.00" fill="white">agraph</text>
<!-- sb1_cards -->
<g id="sb1_cards" class="node">
<title>sb1_cards</title>
<polygon fill="none" stroke="black" points="471,-203 415,-203 415,-167 471,-167 471,-203"/>
<text text-anchor="middle" x="443" y="-181.3" font-family="Times New Roman,serif" font-size="14.00">Карты</text>
</g>
<!-- sbpr_card -->
<g id="sbpr_card" class="node">
<title>sbpr_card</title>
<polygon fill="none" stroke="black" points="916,-203 860,-203 860,-167 916,-167 916,-203"/>
<text text-anchor="middle" x="888" y="-181.3" font-family="Times New Roman,serif" font-size="14.00">Карты</text>
</g>
<!-- sb_1_partners_services -->
<g id="sb_1_partners_services" class="node">
<title>sb_1_partners_services</title>
<polygon fill="none" stroke="black" points="803,-203 665,-203 665,-167 803,-167 803,-203"/>
<text text-anchor="middle" x="734" y="-181.3" font-family="Times New Roman,serif" font-size="14.00">Партнерские услуги</text>
</g>
<!-- sb_1_insurance -->
<g id="sb_1_insurance" class="node">
<title>sb_1_insurance</title>
<polygon fill="none" stroke="black" points="489,-131 409,-131 409,-95 489,-95 489,-131"/>
<text text-anchor="middle" x="449" y="-109.3" font-family="Times New Roman,serif" font-size="14.00">Страховка</text>
</g>
<!-- sb_1_partners_services&#45;&#45;sb_1_insurance -->
<g id="edge13" class="edge">
<title>sb_1_partners_services&#45;&#45;sb_1_insurance</title>
<path fill="none" stroke="black" d="M716.64,-166.68C716.64,-158.21 716.64,-150 716.64,-150 716.64,-150 484.5,-150 484.5,-150 484.5,-150 484.5,-140.46 484.5,-131.07"/>
</g>
<!-- sb_1_partners_services&#45;&#45;sb_1_insurance -->
<g id="edge43" class="edge">
<title>sb_1_partners_services&#45;&#45;sb_1_insurance</title>
<path fill="none" stroke="black" d="M682.21,-166.86C682.21,-160.54 682.21,-155 682.21,-155 682.21,-155 475.5,-155 475.5,-155 475.5,-155 475.5,-142.44 475.5,-131.06"/>
</g>
<!-- sb_1_partners_services&#45;&#45;sb_1_insurance -->
<g id="edge73" class="edge">
<title>sb_1_partners_services&#45;&#45;sb_1_insurance</title>
<path fill="none" stroke="black" d="M699.43,-166.76C699.43,-159.57 699.43,-153 699.43,-153 699.43,-153 480,-153 480,-153 480,-153 480,-141.71 480,-131.13"/>
</g>
<!-- sb_1_medic_services -->
<g id="sb_1_medic_services" class="node">
<title>sb_1_medic_services</title>
<polygon fill="none" stroke="black" points="785.5,-131 642.5,-131 642.5,-95 785.5,-95 785.5,-131"/>
<text text-anchor="middle" x="714" y="-109.3" font-family="Times New Roman,serif" font-size="14.00">Медицинские услуги</text>
</g>
<!-- sb_1_partners_services&#45;&#45;sb_1_medic_services -->
<g id="edge23" class="edge">
<title>sb_1_partners_services&#45;&#45;sb_1_medic_services</title>
<path fill="none" stroke="black" d="M733.86,-166.83C733.86,-156 733.86,-142.29 733.86,-131.41"/>
</g>
<!-- sb_1_partners_services&#45;&#45;sb_1_medic_services -->
<g id="edge53" class="edge">
<title>sb_1_partners_services&#45;&#45;sb_1_medic_services</title>
<path fill="none" stroke="black" d="M751.07,-166.83C751.07,-156 751.07,-142.29 751.07,-131.41"/>
</g>
<!-- sb_1_partners_services&#45;&#45;sb_1_medic_services -->
<g id="edge83" class="edge">
<title>sb_1_partners_services&#45;&#45;sb_1_medic_services</title>
<path fill="none" stroke="black" d="M768.29,-166.83C768.29,-156 768.29,-142.29 768.29,-131.41"/>
</g>
<!-- sb_1_priority_pass -->
<g id="sb_1_priority_pass" class="node">
<title>sb_1_priority_pass</title>
<polygon fill="none" stroke="black" points="901,-131 813,-131 813,-95 901,-95 901,-131"/>
<text text-anchor="middle" x="857" y="-109.3" font-family="Times New Roman,serif" font-size="14.00">Priority Pass</text>
</g>
<!-- sb_1_partners_services&#45;&#45;sb_1_priority_pass -->
<g id="edge17" class="edge">
<title>sb_1_partners_services&#45;&#45;sb_1_priority_pass</title>
<path fill="none" stroke="black" d="M803.02,-172C810.45,-172 815.38,-172 815.38,-172 815.38,-172 815.38,-148.37 815.38,-131.02"/>
</g>
<!-- sb_1_partners_services&#45;&#45;sb_1_priority_pass -->
<g id="edge47" class="edge">
<title>sb_1_partners_services&#45;&#45;sb_1_priority_pass</title>
<path fill="none" stroke="black" d="M803.16,-177C811.84,-177 817.75,-177 817.75,-177 817.75,-177 817.75,-150.09 817.75,-131.17"/>
</g>
<!-- sb_1_partners_services&#45;&#45;sb_1_priority_pass -->
<g id="edge77" class="edge">
<title>sb_1_partners_services&#45;&#45;sb_1_priority_pass</title>
<path fill="none" stroke="black" d="M803.11,-182C813.12,-182 820.13,-182 820.13,-182 820.13,-182 820.13,-151.57 820.13,-131.13"/>
</g>
<!-- insurance_extra_options -->
<g id="insurance_extra_options" class="node">
<title>insurance_extra_options</title>
<polygon fill="none" stroke="black" points="325.5,-59 164.5,-59 164.5,-23 325.5,-23 325.5,-59"/>
<text text-anchor="middle" x="245" y="-37.3" font-family="Times New Roman,serif" font-size="14.00">Дополнительные опции</text>
</g>
<!-- sb_1_insurance&#45;&#45;insurance_extra_options -->
<g id="edge2" class="edge">
<title>sb_1_insurance&#45;&#45;insurance_extra_options</title>
<path fill="none" stroke="black" d="M442,-94.58C442,-85.72 442,-77 442,-77 442,-77 299.5,-77 299.5,-77 299.5,-77 299.5,-68.28 299.5,-59.42"/>
</g>
<!-- sb_1_insurance&#45;&#45;insurance_extra_options -->
<g id="edge32" class="edge">
<title>sb_1_insurance&#45;&#45;insurance_extra_options</title>
<path fill="none" stroke="black" d="M410.9,-94.96C410.9,-87.25 410.9,-80 410.9,-80 410.9,-80 286.5,-80 286.5,-80 286.5,-80 286.5,-69.31 286.5,-59.13"/>
</g>
<!-- sb_1_insurance&#45;&#45;insurance_extra_options -->
<g id="edge62" class="edge">
<title>sb_1_insurance&#45;&#45;insurance_extra_options</title>
<path fill="none" stroke="black" d="M465.5,-94.87C465.5,-84.29 465.5,-73 465.5,-73 465.5,-73 312.5,-73 312.5,-73 312.5,-73 312.5,-66.43 312.5,-59.24"/>
</g>
<!-- страна -->
<g id="node29" class="node">
<title>страна</title>
<polygon fill="none" stroke="black" points="400,-59 344,-59 344,-23 400,-23 400,-59"/>
<text text-anchor="middle" x="372" y="-37.3" font-family="Times New Roman,serif" font-size="14.00">страна</text>
</g>
<!-- sb_1_insurance&#45;&#45;страна -->
<g id="edge30" class="edge">
<title>sb_1_insurance&#45;&#45;страна</title>
<path fill="none" stroke="black" d="M414.7,-94.83C414.7,-73.5 414.7,-41 414.7,-41 414.7,-41 408.18,-41 400.24,-41"/>
</g>
<!-- sb_1_insurance&#45;&#45;страна -->
<g id="edge60" class="edge">
<title>sb_1_insurance&#45;&#45;страна</title>
<path fill="none" stroke="black" d="M412.8,-94.78C412.8,-76.17 412.8,-50 412.8,-50 412.8,-50 407.3,-50 400.34,-50"/>
</g>
<!-- sb_1_insurance&#45;&#45;страна -->
<g id="edge90" class="edge">
<title>sb_1_insurance&#45;&#45;страна</title>
<path fill="none" stroke="black" d="M416.6,-94.62C416.6,-70.72 416.6,-32 416.6,-32 416.6,-32 409.1,-32 400.25,-32"/>
</g>
<!-- sb_1card_medic_services_tvmed -->
<g id="sb_1card_medic_services_tvmed" class="node">
<title>sb_1card_medic_services_tvmed</title>
<polygon fill="none" stroke="black" points="684,-59 586,-59 586,-23 684,-23 684,-59"/>
<text text-anchor="middle" x="635" y="-37.3" font-family="Times New Roman,serif" font-size="14.00">TV&#45;медицина</text>
</g>
<!-- sb_1_medic_services&#45;&#45;sb_1card_medic_services_tvmed -->
<g id="edge22" class="edge">
<title>sb_1_medic_services&#45;&#45;sb_1card_medic_services_tvmed</title>
<path fill="none" stroke="black" d="M673.63,-94.83C673.63,-84 673.63,-70.29 673.63,-59.41"/>
</g>
<!-- sb_1_medic_services&#45;&#45;sb_1card_medic_services_tvmed -->
<g id="edge52" class="edge">
<title>sb_1_medic_services&#45;&#45;sb_1card_medic_services_tvmed</title>
<path fill="none" stroke="black" d="M652.88,-94.83C652.88,-84 652.88,-70.29 652.88,-59.41"/>
</g>
<!-- sb_1_medic_services&#45;&#45;sb_1card_medic_services_tvmed -->
<g id="edge82" class="edge">
<title>sb_1_medic_services&#45;&#45;sb_1card_medic_services_tvmed</title>
<path fill="none" stroke="black" d="M663.25,-94.83C663.25,-84 663.25,-70.29 663.25,-59.41"/>
</g>
<!-- sb_1card_medic_expert_opinion -->
<g id="sb_1card_medic_expert_opinion" class="node">
<title>sb_1card_medic_expert_opinion</title>
<polygon fill="none" stroke="black" points="881.5,-59 702.5,-59 702.5,-23 881.5,-23 881.5,-59"/>
<text text-anchor="middle" x="792" y="-37.3" font-family="Times New Roman,serif" font-size="14.00">Второе экспертное мнение</text>
</g>
<!-- sb_1_medic_services&#45;&#45;sb_1card_medic_expert_opinion -->
<g id="edge3" class="edge">
<title>sb_1_medic_services&#45;&#45;sb_1card_medic_expert_opinion</title>
<path fill="none" stroke="black" d="M744,-94.83C744,-84 744,-70.29 744,-59.41"/>
</g>
<!-- sb_1_medic_services&#45;&#45;sb_1card_medic_expert_opinion -->
<g id="edge33" class="edge">
<title>sb_1_medic_services&#45;&#45;sb_1card_medic_expert_opinion</title>
<path fill="none" stroke="black" d="M723.25,-94.83C723.25,-84 723.25,-70.29 723.25,-59.41"/>
</g>
<!-- sb_1_medic_services&#45;&#45;sb_1card_medic_expert_opinion -->
<g id="edge63" class="edge">
<title>sb_1_medic_services&#45;&#45;sb_1card_medic_expert_opinion</title>
<path fill="none" stroke="black" d="M764.75,-94.83C764.75,-84 764.75,-70.29 764.75,-59.41"/>
</g>
<!-- sb_1_medic_dangerous_desease -->
<g id="sb_1_medic_dangerous_desease" class="node">
<title>sb_1_medic_dangerous_desease</title>
<polygon fill="none" stroke="black" points="567.5,-59 418.5,-59 418.5,-23 567.5,-23 567.5,-59"/>
<text text-anchor="middle" x="493" y="-37.3" font-family="Times New Roman,serif" font-size="14.00">Опасные заболевания</text>
</g>
<!-- sb_1_medic_services&#45;&#45;sb_1_medic_dangerous_desease -->
<g id="edge6" class="edge">
<title>sb_1_medic_services&#45;&#45;sb_1_medic_dangerous_desease</title>
<path fill="none" stroke="black" d="M642.46,-122C583.19,-122 508.63,-122 508.63,-122 508.63,-122 508.63,-83.28 508.63,-59.38"/>
</g>
<!-- sb_1_medic_services&#45;&#45;sb_1_medic_dangerous_desease -->
<g id="edge36" class="edge">
<title>sb_1_medic_services&#45;&#45;sb_1_medic_dangerous_desease</title>
<path fill="none" stroke="black" d="M642.45,-113C590.12,-113 528.25,-113 528.25,-113 528.25,-113 528.25,-80.5 528.25,-59.17"/>
</g>
<!-- sb_1_medic_services&#45;&#45;sb_1_medic_dangerous_desease -->
<g id="edge66" class="edge">
<title>sb_1_medic_services&#45;&#45;sb_1_medic_dangerous_desease</title>
<path fill="none" stroke="black" d="M642.1,-104C597.2,-104 547.88,-104 547.88,-104 547.88,-104 547.88,-77.83 547.88,-59.22"/>
</g>
<!-- priority_pass_cards -->
<g id="priority_pass_cards" class="node">
<title>priority_pass_cards</title>
<polygon fill="none" stroke="black" points="1062,-59 1006,-59 1006,-23 1062,-23 1062,-59"/>
<text text-anchor="middle" x="1034" y="-37.3" font-family="Times New Roman,serif" font-size="14.00">Карты</text>
</g>
<!-- sb_1_priority_pass&#45;&#45;priority_pass_cards -->
<g id="edge10" class="edge">
<title>sb_1_priority_pass&#45;&#45;priority_pass_cards</title>
<path fill="none" stroke="black" d="M886.79,-94.96C886.79,-81.71 886.79,-66 886.79,-66 886.79,-66 1027.25,-66 1027.25,-66 1027.25,-66 1027.25,-63.05 1027.25,-59.17"/>
</g>
<!-- sb_1_priority_pass&#45;&#45;priority_pass_cards -->
<g id="edge40" class="edge">
<title>sb_1_priority_pass&#45;&#45;priority_pass_cards</title>
<path fill="none" stroke="black" d="M889.43,-94.85C889.43,-82.73 889.43,-69 889.43,-69 889.43,-69 1037.88,-69 1037.88,-69 1037.88,-69 1037.88,-64.55 1037.88,-59.21"/>
</g>
<!-- sb_1_priority_pass&#45;&#45;priority_pass_cards -->
<g id="edge70" class="edge">
<title>sb_1_priority_pass&#45;&#45;priority_pass_cards</title>
<path fill="none" stroke="black" d="M884.14,-94.88C884.14,-80.22 884.14,-62 884.14,-62 884.14,-62 1016.63,-62 1016.63,-62 1016.63,-62 1016.63,-60.85 1016.63,-59.08"/>
</g>
<!-- priority_pass_cond -->
<g id="priority_pass_cond" class="node">
<title>priority_pass_cond</title>
<polygon fill="none" stroke="black" points="1148,-59 1080,-59 1080,-23 1148,-23 1148,-59"/>
<text text-anchor="middle" x="1114" y="-37.3" font-family="Times New Roman,serif" font-size="14.00">Условия</text>
</g>
<!-- sb_1_priority_pass&#45;&#45;priority_pass_cond -->
<g id="edge28" class="edge">
<title>sb_1_priority_pass&#45;&#45;priority_pass_cond</title>
<path fill="none" stroke="black" d="M894.71,-94.94C894.71,-90.51 894.71,-87 894.71,-87 894.71,-87 1114,-87 1114,-87 1114,-87 1114,-72.04 1114,-59.18"/>
</g>
<!-- sb_1_priority_pass&#45;&#45;priority_pass_cond -->
<g id="edge58" class="edge">
<title>sb_1_priority_pass&#45;&#45;priority_pass_cond</title>
<path fill="none" stroke="black" d="M897.36,-94.83C897.36,-92.55 897.36,-91 897.36,-91 897.36,-91 1131,-91 1131,-91 1131,-91 1131,-73.37 1131,-59.05"/>
</g>
<!-- sb_1_priority_pass&#45;&#45;priority_pass_cond -->
<g id="edge88" class="edge">
<title>sb_1_priority_pass&#45;&#45;priority_pass_cond</title>
<path fill="none" stroke="black" d="M892.07,-94.8C892.07,-88.97 892.07,-84 892.07,-84 892.07,-84 1097,-84 1097,-84 1097,-84 1097,-71.14 1097,-59.49"/>
</g>
<!-- priority_pass_manage -->
<g id="priority_pass_manage" class="node">
<title>priority_pass_manage</title>
<polygon fill="none" stroke="black" points="988,-59 900,-59 900,-23 988,-23 988,-59"/>
<text text-anchor="middle" x="944" y="-37.3" font-family="Times New Roman,serif" font-size="14.00">Управление</text>
</g>
<!-- sb_1_priority_pass&#45;&#45;priority_pass_manage -->
<g id="edge4" class="edge">
<title>sb_1_priority_pass&#45;&#45;priority_pass_manage</title>
<path fill="none" stroke="black" d="M901,-122C903.34,-122 904.75,-122 904.75,-122 904.75,-122 904.75,-83.28 904.75,-59.38"/>
</g>
<!-- sb_1_priority_pass&#45;&#45;priority_pass_manage -->
<g id="edge34" class="edge">
<title>sb_1_priority_pass&#45;&#45;priority_pass_manage</title>
<path fill="none" stroke="black" d="M901.34,-113C905.67,-113 908.5,-113 908.5,-113 908.5,-113 908.5,-80.5 908.5,-59.17"/>
</g>
<!-- sb_1_priority_pass&#45;&#45;priority_pass_manage -->
<g id="edge64" class="edge">
<title>sb_1_priority_pass&#45;&#45;priority_pass_manage</title>
<path fill="none" stroke="black" d="M901.07,-104C907.63,-104 912.25,-104 912.25,-104 912.25,-104 912.25,-77.83 912.25,-59.22"/>
</g>
<!-- sb1_theme_choice -->
<g id="sb1_theme_choice" class="node">
<title>sb1_theme_choice</title>
<polygon fill="none" stroke="black" points="506,-275 380,-275 380,-239 506,-239 506,-275"/>
<text text-anchor="middle" x="443" y="-253.3" font-family="Times New Roman,serif" font-size="14.00">Сбербанк Первый</text>
</g>
<!-- sb1_theme_choice&#45;&#45;sb1_cards -->
<g id="edge7" class="edge">
<title>sb1_theme_choice&#45;&#45;sb1_cards</title>
<path fill="none" stroke="black" d="M429,-238.83C429,-228 429,-214.29 429,-203.41"/>
</g>
<!-- sb1_theme_choice&#45;&#45;sb1_cards -->
<g id="edge37" class="edge">
<title>sb1_theme_choice&#45;&#45;sb1_cards</title>
<path fill="none" stroke="black" d="M443,-238.83C443,-228 443,-214.29 443,-203.41"/>
</g>
<!-- sb1_theme_choice&#45;&#45;sb1_cards -->
<g id="edge67" class="edge">
<title>sb1_theme_choice&#45;&#45;sb1_cards</title>
<path fill="none" stroke="black" d="M457,-238.83C457,-228 457,-214.29 457,-203.41"/>
</g>
<!-- sb1_theme_choice&#45;&#45;sb_1_partners_services -->
<g id="edge20" class="edge">
<title>sb1_theme_choice&#45;&#45;sb_1_partners_services</title>
<path fill="none" stroke="black" d="M506.05,-253C574.72,-253 674.88,-253 674.88,-253 674.88,-253 674.88,-223.37 674.88,-203.22"/>
</g>
<!-- sb1_theme_choice&#45;&#45;sb_1_partners_services -->
<g id="edge50" class="edge">
<title>sb1_theme_choice&#45;&#45;sb_1_partners_services</title>
<path fill="none" stroke="black" d="M506.17,-260C580.71,-260 694.63,-260 694.63,-260 694.63,-260 694.63,-225.35 694.63,-203.16"/>
</g>
<!-- sb1_theme_choice&#45;&#45;sb_1_partners_services -->
<g id="edge80" class="edge">
<title>sb1_theme_choice&#45;&#45;sb_1_partners_services</title>
<path fill="none" stroke="black" d="M506.2,-257C577.83,-257 684.75,-257 684.75,-257 684.75,-257 684.75,-224.5 684.75,-203.17"/>
</g>
<!-- sb_1card_credit_bp -->
<g id="sb_1card_credit_bp" class="node">
<title>sb_1card_credit_bp</title>
<polygon fill="none" stroke="black" points="647,-203 489,-203 489,-167 647,-167 647,-203"/>
<text text-anchor="middle" x="568" y="-181.3" font-family="Times New Roman,serif" font-size="14.00">Кредит без поручителя</text>
</g>
<!-- sb1_theme_choice&#45;&#45;sb_1card_credit_bp -->
<g id="edge24" class="edge">
<title>sb1_theme_choice&#45;&#45;sb_1card_credit_bp</title>
<path fill="none" stroke="black" d="M497.5,-238.83C497.5,-228 497.5,-214.29 497.5,-203.41"/>
</g>
<!-- sb1_theme_choice&#45;&#45;sb_1card_credit_bp -->
<g id="edge54" class="edge">
<title>sb1_theme_choice&#45;&#45;sb_1card_credit_bp</title>
<path fill="none" stroke="black" d="M501.75,-238.83C501.75,-228 501.75,-214.29 501.75,-203.41"/>
</g>
<!-- sb1_theme_choice&#45;&#45;sb_1card_credit_bp -->
<g id="edge84" class="edge">
<title>sb1_theme_choice&#45;&#45;sb_1card_credit_bp</title>
<path fill="none" stroke="black" d="M493.25,-238.83C493.25,-228 493.25,-214.29 493.25,-203.41"/>
</g>
<!-- sb_1card_credit_sp -->
<g id="sb_1card_credit_sp" class="node">
<title>sb_1card_credit_sp</title>
<polygon fill="none" stroke="black" points="214.5,-203 61.5,-203 61.5,-167 214.5,-167 214.5,-203"/>
<text text-anchor="middle" x="138" y="-181.3" font-family="Times New Roman,serif" font-size="14.00">Кредит с поручителем</text>
</g>
<!-- sb1_theme_choice&#45;&#45;sb_1card_credit_sp -->
<g id="edge25" class="edge">
<title>sb1_theme_choice&#45;&#45;sb_1card_credit_sp</title>
<path fill="none" stroke="black" d="M379.8,-264C290.47,-264 138,-264 138,-264 138,-264 138,-226.66 138,-203.32"/>
</g>
<!-- sb1_theme_choice&#45;&#45;sb_1card_credit_sp -->
<g id="edge55" class="edge">
<title>sb1_theme_choice&#45;&#45;sb_1card_credit_sp</title>
<path fill="none" stroke="black" d="M379.64,-269C280.46,-269 99.75,-269 99.75,-269 99.75,-269 99.75,-227.93 99.75,-203.23"/>
</g>
<!-- sb1_theme_choice&#45;&#45;sb_1card_credit_sp -->
<g id="edge85" class="edge">
<title>sb1_theme_choice&#45;&#45;sb_1card_credit_sp</title>
<path fill="none" stroke="black" d="M379.78,-259C300.9,-259 176.25,-259 176.25,-259 176.25,-259 176.25,-225.21 176.25,-203.29"/>
</g>
<!-- sb_1card_vklad -->
<g id="sb_1card_vklad" class="node">
<title>sb_1card_vklad</title>
<polygon fill="none" stroke="black" points="295,-203 233,-203 233,-167 295,-167 295,-203"/>
<text text-anchor="middle" x="264" y="-181.3" font-family="Times New Roman,serif" font-size="14.00">Вклады</text>
</g>
<!-- sb1_theme_choice&#45;&#45;sb_1card_vklad -->
<g id="edge8" class="edge">
<title>sb1_theme_choice&#45;&#45;sb_1card_vklad</title>
<path fill="none" stroke="black" d="M379.85,-254C323.06,-254 248.5,-254 248.5,-254 248.5,-254 248.5,-223.57 248.5,-203.13"/>
</g>
<!-- sb1_theme_choice&#45;&#45;sb_1card_vklad -->
<g id="edge38" class="edge">
<title>sb1_theme_choice&#45;&#45;sb_1card_vklad</title>
<path fill="none" stroke="black" d="M379.89,-249C328.36,-249 264,-249 264,-249 264,-249 264,-222.09 264,-203.17"/>
</g>
<!-- sb1_theme_choice&#45;&#45;sb_1card_vklad -->
<g id="edge68" class="edge">
<title>sb1_theme_choice&#45;&#45;sb_1card_vklad</title>
<path fill="none" stroke="black" d="M379.79,-244C333.78,-244 279.5,-244 279.5,-244 279.5,-244 279.5,-220.37 279.5,-203.02"/>
</g>
<!-- sb_1_obligations -->
<g id="sb_1_obligations" class="node">
<title>sb_1_obligations</title>
<polygon fill="none" stroke="black" points="396.5,-203 313.5,-203 313.5,-167 396.5,-167 396.5,-203"/>
<text text-anchor="middle" x="355" y="-181.3" font-family="Times New Roman,serif" font-size="14.00">Облигации</text>
</g>
<!-- sb1_theme_choice&#45;&#45;sb_1_obligations -->
<g id="edge5" class="edge">
<title>sb1_theme_choice&#45;&#45;sb_1_obligations</title>
<path fill="none" stroke="black" d="M384.13,-238.83C384.13,-228 384.13,-214.29 384.13,-203.41"/>
</g>
<!-- sb1_theme_choice&#45;&#45;sb_1_obligations -->
<g id="edge35" class="edge">
<title>sb1_theme_choice&#45;&#45;sb_1_obligations</title>
<path fill="none" stroke="black" d="M388.25,-238.83C388.25,-228 388.25,-214.29 388.25,-203.41"/>
</g>
<!-- sb1_theme_choice&#45;&#45;sb_1_obligations -->
<g id="edge65" class="edge">
<title>sb1_theme_choice&#45;&#45;sb_1_obligations</title>
<path fill="none" stroke="black" d="M392.38,-238.83C392.38,-228 392.38,-214.29 392.38,-203.41"/>
</g>
<!-- sb_1card_vklad_lsohranyai -->
<g id="sb_1card_vklad_lsohranyai" class="node">
<title>sb_1card_vklad_lsohranyai</title>
<polygon fill="none" stroke="black" points="118,-131 0,-131 0,-95 118,-95 118,-131"/>
<text text-anchor="middle" x="59" y="-109.3" font-family="Times New Roman,serif" font-size="14.00">Лидер Сохраняй</text>
</g>
<!-- sb_1card_vklad&#45;&#45;sb_1card_vklad_lsohranyai -->
<g id="edge11" class="edge">
<title>sb_1card_vklad&#45;&#45;sb_1card_vklad_lsohranyai</title>
<path fill="none" stroke="black" d="M236.21,-166.89C236.21,-157.1 236.21,-147 236.21,-147 236.21,-147 75.63,-147 75.63,-147 75.63,-147 75.63,-139.28 75.63,-131.19"/>
</g>
<!-- sb_1card_vklad&#45;&#45;sb_1card_vklad_lsohranyai -->
<g id="edge41" class="edge">
<title>sb_1card_vklad&#45;&#45;sb_1card_vklad_lsohranyai</title>
<path fill="none" stroke="black" d="M239.43,-166.9C239.43,-155.91 239.43,-144 239.43,-144 239.43,-144 89.75,-144 89.75,-144 89.75,-144 89.75,-137.85 89.75,-131.03"/>
</g>
<!-- sb_1card_vklad&#45;&#45;sb_1card_vklad_lsohranyai -->
<g id="edge71" class="edge">
<title>sb_1card_vklad&#45;&#45;sb_1card_vklad_lsohranyai</title>
<path fill="none" stroke="black" d="M242.64,-166.51C242.64,-154.86 242.64,-142 242.64,-142 242.64,-142 103.88,-142 103.88,-142 103.88,-142 103.88,-137.03 103.88,-131.2"/>
</g>
<!-- sb_1card_vklad_lpopolnyai -->
<g id="sb_1card_vklad_lpopolnyai" class="node">
<title>sb_1card_vklad_lpopolnyai</title>
<polygon fill="none" stroke="black" points="255.5,-131 136.5,-131 136.5,-95 255.5,-95 255.5,-131"/>
<text text-anchor="middle" x="196" y="-109.3" font-family="Times New Roman,serif" font-size="14.00">Лидер Пополняй</text>
</g>
<!-- sb_1card_vklad&#45;&#45;sb_1card_vklad_lpopolnyai -->
<g id="edge16" class="edge">
<title>sb_1card_vklad&#45;&#45;sb_1card_vklad_lpopolnyai</title>
<path fill="none" stroke="black" d="M252.29,-166.83C252.29,-156 252.29,-142.29 252.29,-131.41"/>
</g>
<!-- sb_1card_vklad&#45;&#45;sb_1card_vklad_lpopolnyai -->
<g id="edge46" class="edge">
<title>sb_1card_vklad&#45;&#45;sb_1card_vklad_lpopolnyai</title>
<path fill="none" stroke="black" d="M249.07,-166.83C249.07,-156 249.07,-142.29 249.07,-131.41"/>
</g>
<!-- sb_1card_vklad&#45;&#45;sb_1card_vklad_lpopolnyai -->
<g id="edge76" class="edge">
<title>sb_1card_vklad&#45;&#45;sb_1card_vklad_lpopolnyai</title>
<path fill="none" stroke="black" d="M245.86,-166.83C245.86,-156 245.86,-142.29 245.86,-131.41"/>
</g>
<!-- sb_1card_vklad_luprvlyai -->
<g id="sb_1card_vklad_luprvlyai" class="node">
<title>sb_1card_vklad_luprvlyai</title>
<polygon fill="none" stroke="black" points="390.5,-131 273.5,-131 273.5,-95 390.5,-95 390.5,-131"/>
<text text-anchor="middle" x="332" y="-109.3" font-family="Times New Roman,serif" font-size="14.00">Лидер Управляй</text>
</g>
<!-- sb_1card_vklad&#45;&#45;sb_1card_vklad_luprvlyai -->
<g id="edge29" class="edge">
<title>sb_1card_vklad&#45;&#45;sb_1card_vklad_luprvlyai</title>
<path fill="none" stroke="black" d="M284.25,-166.83C284.25,-156 284.25,-142.29 284.25,-131.41"/>
</g>
<!-- sb_1card_vklad&#45;&#45;sb_1card_vklad_luprvlyai -->
<g id="edge59" class="edge">
<title>sb_1card_vklad&#45;&#45;sb_1card_vklad_luprvlyai</title>
<path fill="none" stroke="black" d="M289.63,-166.83C289.63,-156 289.63,-142.29 289.63,-131.41"/>
</g>
<!-- sb_1card_vklad&#45;&#45;sb_1card_vklad_luprvlyai -->
<g id="edge89" class="edge">
<title>sb_1card_vklad&#45;&#45;sb_1card_vklad_luprvlyai</title>
<path fill="none" stroke="black" d="M278.88,-166.83C278.88,-156 278.88,-142.29 278.88,-131.41"/>
</g>
<!-- sbpr_theme_choice -->
<g id="sbpr_theme_choice" class="node">
<title>sbpr_theme_choice</title>
<polygon fill="none" stroke="black" points="953.5,-275 822.5,-275 822.5,-239 953.5,-239 953.5,-275"/>
<text text-anchor="middle" x="888" y="-253.3" font-family="Times New Roman,serif" font-size="14.00">Сбербанк Премьер</text>
</g>
<!-- sbpr_theme_choice&#45;&#45;sbpr_card -->
<g id="edge9" class="edge">
<title>sbpr_theme_choice&#45;&#45;sbpr_card</title>
<path fill="none" stroke="black" d="M902,-238.83C902,-228 902,-214.29 902,-203.41"/>
</g>
<!-- sbpr_theme_choice&#45;&#45;sbpr_card -->
<g id="edge39" class="edge">
<title>sbpr_theme_choice&#45;&#45;sbpr_card</title>
<path fill="none" stroke="black" d="M888,-238.83C888,-228 888,-214.29 888,-203.41"/>
</g>
<!-- sbpr_theme_choice&#45;&#45;sbpr_card -->
<g id="edge69" class="edge">
<title>sbpr_theme_choice&#45;&#45;sbpr_card</title>
<path fill="none" stroke="black" d="M874,-238.83C874,-228 874,-214.29 874,-203.41"/>
</g>
<!-- sbpr_theme_choice&#45;&#45;sb_1_partners_services -->
<g id="edge21" class="edge">
<title>sbpr_theme_choice&#45;&#45;sb_1_partners_services</title>
<path fill="none" stroke="black" d="M831.88,-239C831.88,-221.32 831.88,-197 831.88,-197 831.88,-197 819.23,-197 803.04,-197"/>
</g>
<!-- sbpr_theme_choice&#45;&#45;sb_1_partners_services -->
<g id="edge51" class="edge">
<title>sbpr_theme_choice&#45;&#45;sb_1_partners_services</title>
<path fill="none" stroke="black" d="M850.63,-238.97C850.63,-218.23 850.63,-187 850.63,-187 850.63,-187 828.3,-187 803.19,-187"/>
</g>
<!-- sbpr_theme_choice&#45;&#45;sb_1_partners_services -->
<g id="edge81" class="edge">
<title>sbpr_theme_choice&#45;&#45;sb_1_partners_services</title>
<path fill="none" stroke="black" d="M841.25,-238.89C841.25,-219.66 841.25,-192 841.25,-192 841.25,-192 823.89,-192 803.14,-192"/>
</g>
<!-- sbpr_card_vklad -->
<g id="sbpr_card_vklad" class="node">
<title>sbpr_card_vklad</title>
<polygon fill="none" stroke="black" points="1015,-203 953,-203 953,-167 1015,-167 1015,-203"/>
<text text-anchor="middle" x="984" y="-181.3" font-family="Times New Roman,serif" font-size="14.00">Вклады</text>
</g>
<!-- sbpr_theme_choice&#45;&#45;sbpr_card_vklad -->
<g id="edge14" class="edge">
<title>sbpr_theme_choice&#45;&#45;sbpr_card_vklad</title>
<path fill="none" stroke="black" d="M936.25,-238.83C936.25,-217.5 936.25,-185 936.25,-185 936.25,-185 943.83,-185 952.95,-185"/>
</g>
<!-- sbpr_theme_choice&#45;&#45;sbpr_card_vklad -->
<g id="edge44" class="edge">
<title>sbpr_theme_choice&#45;&#45;sbpr_card_vklad</title>
<path fill="none" stroke="black" d="M927.88,-238.78C927.88,-220.17 927.88,-194 927.88,-194 927.88,-194 940,-194 952.98,-194"/>
</g>
<!-- sbpr_theme_choice&#45;&#45;sbpr_card_vklad -->
<g id="edge74" class="edge">
<title>sbpr_theme_choice&#45;&#45;sbpr_card_vklad</title>
<path fill="none" stroke="black" d="M944.63,-238.62C944.63,-214.72 944.63,-176 944.63,-176 944.63,-176 948.1,-176 952.98,-176"/>
</g>
<!-- sbpr_vault -->
<g id="sbpr_vault" class="node">
<title>sbpr_vault</title>
<polygon fill="none" stroke="black" points="1087,-203 1033,-203 1033,-167 1087,-167 1087,-203"/>
<text text-anchor="middle" x="1060" y="-181.3" font-family="Times New Roman,serif" font-size="14.00">Сейф</text>
</g>
<!-- sbpr_theme_choice&#45;&#45;sbpr_vault -->
<g id="edge12" class="edge">
<title>sbpr_theme_choice&#45;&#45;sbpr_vault</title>
<path fill="none" stroke="black" d="M953.84,-248C997.39,-248 1046.5,-248 1046.5,-248 1046.5,-248 1046.5,-221.83 1046.5,-203.22"/>
</g>
<!-- sbpr_theme_choice&#45;&#45;sbpr_vault -->
<g id="edge42" class="edge">
<title>sbpr_theme_choice&#45;&#45;sbpr_vault</title>
<path fill="none" stroke="black" d="M953.66,-266C1007.02,-266 1073.5,-266 1073.5,-266 1073.5,-266 1073.5,-227.28 1073.5,-203.38"/>
</g>
<!-- sbpr_theme_choice&#45;&#45;sbpr_vault -->
<g id="edge72" class="edge">
<title>sbpr_theme_choice&#45;&#45;sbpr_vault</title>
<path fill="none" stroke="black" d="M953.52,-257C1002.12,-257 1060,-257 1060,-257 1060,-257 1060,-224.5 1060,-203.17"/>
</g>
<!-- sbpr_card_vklad_lsohranyai -->
<g id="sbpr_card_vklad_lsohranyai" class="node">
<title>sbpr_card_vklad_lsohranyai</title>
<polygon fill="none" stroke="black" points="1048.5,-131 919.5,-131 919.5,-95 1048.5,-95 1048.5,-131"/>
<text text-anchor="middle" x="984" y="-109.3" font-family="Times New Roman,serif" font-size="14.00">Особый Сохраняй</text>
</g>
<!-- sbpr_card_vklad&#45;&#45;sbpr_card_vklad_lsohranyai -->
<g id="edge27" class="edge">
<title>sbpr_card_vklad&#45;&#45;sbpr_card_vklad_lsohranyai</title>
<path fill="none" stroke="black" d="M971.6,-166.83C971.6,-156 971.6,-142.29 971.6,-131.41"/>
</g>
<!-- sbpr_card_vklad&#45;&#45;sbpr_card_vklad_lsohranyai -->
<g id="edge57" class="edge">
<title>sbpr_card_vklad&#45;&#45;sbpr_card_vklad_lsohranyai</title>
<path fill="none" stroke="black" d="M959.2,-166.83C959.2,-156 959.2,-142.29 959.2,-131.41"/>
</g>
<!-- sbpr_card_vklad&#45;&#45;sbpr_card_vklad_lsohranyai -->
<g id="edge87" class="edge">
<title>sbpr_card_vklad&#45;&#45;sbpr_card_vklad_lsohranyai</title>
<path fill="none" stroke="black" d="M965.4,-166.83C965.4,-156 965.4,-142.29 965.4,-131.41"/>
</g>
<!-- sbpr_card_vklad_lpopolnyai -->
<g id="sbpr_card_vklad_lpopolnyai" class="node">
<title>sbpr_card_vklad_lpopolnyai</title>
<polygon fill="none" stroke="black" points="1197.5,-131 1066.5,-131 1066.5,-95 1197.5,-95 1197.5,-131"/>
<text text-anchor="middle" x="1132" y="-109.3" font-family="Times New Roman,serif" font-size="14.00">Особый Пополняй</text>
</g>
<!-- sbpr_card_vklad&#45;&#45;sbpr_card_vklad_lpopolnyai -->
<g id="edge1" class="edge">
<title>sbpr_card_vklad&#45;&#45;sbpr_card_vklad_lpopolnyai</title>
<path fill="none" stroke="black" d="M990.2,-166.82C990.2,-153.96 990.2,-139 990.2,-139 990.2,-139 1081.88,-139 1081.88,-139 1081.88,-139 1081.88,-135.49 1081.88,-131.06"/>
</g>
<!-- sbpr_card_vklad&#45;&#45;sbpr_card_vklad_lpopolnyai -->
<g id="edge31" class="edge">
<title>sbpr_card_vklad&#45;&#45;sbpr_card_vklad_lpopolnyai</title>
<path fill="none" stroke="black" d="M984,-166.75C984,-152.82 984,-136 984,-136 984,-136 1076.75,-136 1076.75,-136 1076.75,-136 1076.75,-133.97 1076.75,-131.12"/>
</g>
<!-- sbpr_card_vklad&#45;&#45;sbpr_card_vklad_lpopolnyai -->
<g id="edge61" class="edge">
<title>sbpr_card_vklad&#45;&#45;sbpr_card_vklad_lpopolnyai</title>
<path fill="none" stroke="black" d="M977.8,-166.81C977.8,-151.82 977.8,-133 977.8,-133 977.8,-133 1071.63,-133 1071.63,-133 1071.63,-133 1071.63,-132.3 1071.63,-131.15"/>
</g>
<!-- sbpr_card_vklad_luprvlyai -->
<g id="sbpr_card_vklad_luprvlyai" class="node">
<title>sbpr_card_vklad_luprvlyai</title>
<polygon fill="none" stroke="black" points="1344,-131 1216,-131 1216,-95 1344,-95 1344,-131"/>
<text text-anchor="middle" x="1280" y="-109.3" font-family="Times New Roman,serif" font-size="14.00">Особый Управляй</text>
</g>
<!-- sbpr_card_vklad&#45;&#45;sbpr_card_vklad_luprvlyai -->
<g id="edge15" class="edge">
<title>sbpr_card_vklad&#45;&#45;sbpr_card_vklad_luprvlyai</title>
<path fill="none" stroke="black" d="M1002.6,-166.81C1002.6,-163.46 1002.6,-161 1002.6,-161 1002.6,-161 1280,-161 1280,-161 1280,-161 1280,-144.74 1280,-131.15"/>
</g>
<!-- sbpr_card_vklad&#45;&#45;sbpr_card_vklad_luprvlyai -->
<g id="edge45" class="edge">
<title>sbpr_card_vklad&#45;&#45;sbpr_card_vklad_luprvlyai</title>
<path fill="none" stroke="black" d="M1008.8,-166.92C1008.8,-165.15 1008.8,-164 1008.8,-164 1008.8,-164 1312,-164 1312,-164 1312,-164 1312,-145.78 1312,-131.12"/>
</g>
<!-- sbpr_card_vklad&#45;&#45;sbpr_card_vklad_luprvlyai -->
<g id="edge75" class="edge">
<title>sbpr_card_vklad&#45;&#45;sbpr_card_vklad_luprvlyai</title>
<path fill="none" stroke="black" d="M996.4,-166.84C996.4,-161.96 996.4,-158 996.4,-158 996.4,-158 1248,-158 1248,-158 1248,-158 1248,-143.56 1248,-131.04"/>
</g>
<!-- sberta_package_choise -->
<g id="sberta_package_choise" class="node">
<title>sberta_package_choise</title>
<polygon fill="none" stroke="black" points="763.5,-347 704.5,-347 704.5,-311 763.5,-311 763.5,-347"/>
<text text-anchor="middle" x="734" y="-325.3" font-family="Times New Roman,serif" font-size="14.00">Сберта</text>
</g>
<!-- sberta_package_choise&#45;&#45;sb_1_partners_services -->
<g id="edge26" class="edge">
<title>sberta_package_choise&#45;&#45;sb_1_partners_services</title>
<path fill="none" stroke="black" d="M728.1,-310.76C728.1,-283.06 728.1,-230.7 728.1,-203.09"/>
</g>
<!-- sberta_package_choise&#45;&#45;sb_1_partners_services -->
<g id="edge56" class="edge">
<title>sberta_package_choise&#45;&#45;sb_1_partners_services</title>
<path fill="none" stroke="black" d="M734,-310.76C734,-283.06 734,-230.7 734,-203.09"/>
</g>
<!-- sberta_package_choise&#45;&#45;sb_1_partners_services -->
<g id="edge86" class="edge">
<title>sberta_package_choise&#45;&#45;sb_1_partners_services</title>
<path fill="none" stroke="black" d="M739.9,-310.76C739.9,-283.06 739.9,-230.7 739.9,-203.09"/>
</g>
<!-- sberta_package_choise&#45;&#45;sb1_theme_choice -->
<g id="edge19" class="edge">
<title>sberta_package_choise&#45;&#45;sb1_theme_choice</title>
<path fill="none" stroke="black" d="M710.4,-310.97C710.4,-293.94 710.4,-271 710.4,-271 710.4,-271 585.09,-271 506.03,-271"/>
</g>
<!-- sberta_package_choise&#45;&#45;sb1_theme_choice -->
<g id="edge49" class="edge">
<title>sberta_package_choise&#45;&#45;sb1_theme_choice</title>
<path fill="none" stroke="black" d="M716.3,-310.73C716.3,-292.44 716.3,-267 716.3,-267 716.3,-267 586.76,-267 506.04,-267"/>
</g>
<!-- sberta_package_choise&#45;&#45;sb1_theme_choice -->
<g id="edge79" class="edge">
<title>sberta_package_choise&#45;&#45;sb1_theme_choice</title>
<path fill="none" stroke="black" d="M722.2,-310.89C722.2,-291.66 722.2,-264 722.2,-264 722.2,-264 588.35,-264 506.01,-264"/>
</g>
<!-- sberta_package_choise&#45;&#45;sbpr_theme_choice -->
<g id="edge18" class="edge">
<title>sberta_package_choise&#45;&#45;sbpr_theme_choice</title>
<path fill="none" stroke="black" d="M757.6,-310.85C757.6,-287.24 757.6,-249 757.6,-249 757.6,-249 789.95,-249 822.42,-249"/>
</g>
<!-- sberta_package_choise&#45;&#45;sbpr_theme_choice -->
<g id="edge48" class="edge">
<title>sberta_package_choise&#45;&#45;sbpr_theme_choice</title>
<path fill="none" stroke="black" d="M751.7,-310.99C751.7,-286.58 751.7,-246 751.7,-246 751.7,-246 787.39,-246 822.25,-246"/>
</g>
<!-- sberta_package_choise&#45;&#45;sbpr_theme_choice -->
<g id="edge78" class="edge">
<title>sberta_package_choise&#45;&#45;sbpr_theme_choice</title>
<path fill="none" stroke="black" d="M745.8,-310.97C745.8,-285.49 745.8,-242 745.8,-242 745.8,-242 785.05,-242 822.31,-242"/>
</g>
</g>
</svg>
